<?xml version="1.0" standalone="no"?>
<!DOCTYPE svg PUBLIC "-//W3C//DTD SVG 20010904//EN"
 "http://www.w3.org/TR/2001/REC-SVG-20010904/DTD/svg10.dtd">
<svg version="1.0" xmlns="http://www.w3.org/2000/svg"
 width="205.000000pt" height="205.000000pt" viewBox="0 0 205.000000 205.000000"
 preserveAspectRatio="xMidYMid meet">
<metadata>
Created by potrace 1.14, written by Peter Selinger 2001-2017
</metadata>
<g transform="translate(0.000000,205.000000) scale(0.100000,-0.100000)"
fill="#000000" stroke="none">
<path d="M326 1969 l-26 -20 0 -183 c0 -178 1 -183 23 -204 l23 -22 615 0 616
0 21 23 c21 22 22 32 22 203 0 176 -1 181 -23 202 l-23 22 -611 0 c-602 0
-611 0 -637 -21z"/>
<path d="M247 1824 c-4 -4 -7 -31 -7 -61 0 -39 4 -55 15 -60 22 -8 23 -5 26
62 2 47 0 61 -12 63 -8 1 -18 0 -22 -4z"/>
<path d="M1637 1823 c-4 -3 -7 -33 -7 -65 0 -51 2 -58 20 -58 13 0 20 7 20 20
0 11 5 20 10 20 6 0 19 -9 30 -20 18 -18 20 -33 20 -148 0 -120 -1 -130 -22
-149 -13 -12 -167 -94 -343 -184 -176 -89 -328 -169 -339 -178 -30 -25 -46
-75 -46 -141 l0 -60 -81 0 c-71 0 -80 -2 -77 -17 2 -10 22 -31 46 -48 l43 -30
-5 -329 c-5 -273 -9 -332 -21 -346 -18 -20 -20 -56 -2 -67 13 -8 235 -5 249 3
16 10 8 63 -11 69 -17 5 -18 24 -20 339 -2 324 -2 334 17 340 26 9 72 55 72
72 0 11 -19 14 -80 14 l-80 0 0 60 c0 51 4 64 28 89 16 18 148 91 337 187 171
86 322 165 336 175 44 31 51 63 47 219 l-3 142 -33 29 c-18 16 -41 29 -51 29
-10 0 -21 9 -24 20 -5 20 -18 26 -30 13z"/>
</g>
</svg>
